<?xml version="1.0" encoding="utf-8"?>
<svg version="1.1" xmlns="http://www.w3.org/2000/svg" x="0px" y="0px"
	 viewBox="0 0 108 108" style="enable-background:new 0 0 108 108;">
<style type="text/css">
	.lc{fill:url(#lcg);}
	.lt{fill:url(#ltg);}
	.mc{fill:url(#mcg);}
	.mt{fill:url(#mtg);}
	.tc{fill:url(#tcg);}
	.tt{fill:url(#ttg);}
	.fg{filter:url(#ff);}
	.shdw{filter:url(#shadow);}
</style>
<defs>
	<filter id="shadow" x="-50%" y="-50%" width="200%" height="200%" primitiveUnits="userSpaceOnUse">
		<feDropShadow dx="1" dy="2" stdDeviation="2" flood-opacity="0.2" />
	</filter>
	<filter  filterUnits="objectBoundingBox" id="ff">
		<feDiffuseLighting  in="SourceGraphic" lighting-color="white" result="light">
			<fePointLight  x="0" y="0" z="60" />
		</feDiffuseLighting>
		<feComposite  in="light" in2="SourceGraphic" k1="0.4" k2="0" k3="0.8" k4="0" operator="arithmetic" result="lightOutput" />
	</filter>
	<linearGradient id="lcg" gradientUnits="userSpaceOnUse" x1="0%" y1="0%" x2="100%" y2="100%">
		<stop  offset="0" style="stop-color:#30C8FF"/>
		<stop  offset="1" style="stop-color:#258BD9"/>
	</linearGradient>
	<linearGradient id="ltg" gradientUnits="userSpaceOnUse" x1="0%" y1="0%" x2="100%" y2="100%">
		<stop  offset="0" style="stop-color:#008FE8"/>
		<stop  offset="1" style="stop-color:#1B6BCF"/>
	</linearGradient>
	<linearGradient id="mcg" gradientUnits="userSpaceOnUse" x1="0%" y1="0%" x2="100%" y2="100%">
		<stop  offset="0" style="stop-color:#30C8FF"/>
		<stop  offset="1" style="stop-color:#258BD9"/>
	</linearGradient>
	<linearGradient id="mtg" gradientUnits="userSpaceOnUse" x1="0%" y1="0%" x2="100%" y2="100%">
		<stop  offset="0" style="stop-color:#008FE8"/>
		<stop  offset="1" style="stop-color:#1B6BCF"/>
	</linearGradient>
	<linearGradient id="tcg" gradientUnits="userSpaceOnUse" x1="0%" y1="0%" x2="100%" y2="100%">
		<stop  offset="0" style="stop-color:#30C8FF"/>
		<stop  offset="1" style="stop-color:#258BD9"/>
	</linearGradient>
	<linearGradient id="ttg" gradientUnits="userSpaceOnUse" x1="0%" y1="0%" x2="100%" y2="100%">
		<stop  offset="0" style="stop-color:#008FE8"/>
		<stop  offset="1" style="stop-color:#1B6BCF"/>
	</linearGradient>
</defs>
<g id="Foreground" class="shdw">
	
	<g id="database" class="fg">
		<g id="lower">
			<path id="lower-cylinder" class="lc" d="M54,65.7c-9.4,0-17-1.6-17-3.7v14.3c0,2,7.6,3.7,17,3.7c9.4,0,17-1.6,17-3.7V62
				C71,64,63.4,65.7,54,65.7z"/>
			<ellipse id="lower-top" class="lt" cx="54" cy="62.05" rx="17" ry="3.7"/>
		</g>
		<g id="middle">
			<path id="middle-cylinder" class="mc" d="M54,50.5c-9.4,0-17-1.6-17-3.7v14.3c0,2,7.6,3.7,17,3.7c9.4,0,17-1.6,17-3.7V46.8
				C71,48.9,63.4,50.5,54,50.5z"/>
			<ellipse id="middle-top" class="mt" cx="54" cy="46.85" rx="17" ry="3.7"/>
		</g>
		<g id="top">
			<path id="top-cylinder" class="tc" d="M54,35.3c-9.4,0-17-1.6-17-3.7V46c0,2,7.6,3.7,17,3.7c9.4,0,17-1.6,17-3.7V31.7
				C71,33.7,63.4,35.3,54,35.3z"/>
			<ellipse id="top-top" class="tt" cx="54" cy="31.75" rx="17" ry="3.7"/>
		</g>
	</g>
</g>
</svg>
